<?xml version="1.0" ?><svg id="Icon" viewBox="0 0 64 64" xmlns="http://www.w3.org/2000/svg" xmlns:xlink="http://www.w3.org/1999/xlink"><defs><style>.cls-1{fill:url(#linear-gradient);}.cls-2{fill:url(#linear-gradient-2);}.cls-3{fill:#212121;}.cls-4{fill:url(#linear-gradient-3);}.cls-5{fill:url(#linear-gradient-4);}</style><linearGradient gradientUnits="userSpaceOnUse" id="linear-gradient" x1="30.73" x2="30.73" y1="33.406" y2="61.581"><stop offset="0" stop-color="#212121"/><stop offset="1" stop-color="#607d8b"/></linearGradient><linearGradient gradientUnits="userSpaceOnUse" id="linear-gradient-2" x1="30.732" x2="30.732" y1="11.485" y2="38.773"><stop offset="0" stop-color="#434343"/><stop offset="1" stop-color="#212121"/></linearGradient><linearGradient gradientUnits="userSpaceOnUse" id="linear-gradient-3" x1="30.73" x2="30.73" y1="52.505" y2="40.846"><stop offset="0" stop-color="#fcb64d"/><stop offset="1" stop-color="#f78c1e"/></linearGradient><linearGradient id="linear-gradient-4" x1="56.463" x2="56.463" xlink:href="#linear-gradient-3" y1="45.614" y2="34.546"/></defs><path class="cls-1" d="M49.05,27.122v12.31a37.984,37.984,0,0,1-36.64,0V27.122l18.32,6.83Z"/><path class="cls-2" d="M56.813,23.421l-25.732-9.59a1,1,0,0,0-.7,0L4.651,23.421a1,1,0,0,0,0,1.875l25.731,9.589a1.016,1.016,0,0,0,.7,0L56.813,25.3a1,1,0,0,0,0-1.875Z"/><path class="cls-3" d="M56.463,23.358H30.732a1,1,0,0,0,0,2H55.463v13.03a1,1,0,0,0,2,0V24.358A1,1,0,0,0,56.463,23.358Z"/><path class="cls-4" d="M49.05,39.432v6.09a37.984,37.984,0,0,1-36.64,0v-6.09A37.984,37.984,0,0,0,49.05,39.432Z"/><path class="cls-5" d="M58.975,38.208a1,1,0,0,0-.984-.82H54.935a1,1,0,0,0-.984.82l-1.009,5.509a1,1,0,0,0,.984,1.179H59a1,1,0,0,0,.983-1.179Z"/></svg>